%TF.GenerationSoftware,KiCad,Pcbnew,7.0.9*%
%TF.CreationDate,2023-11-12T02:23:47+01:00*%
%TF.ProjectId,try2,74727932-2e6b-4696-9361-645f70636258,rev?*%
%TF.SameCoordinates,Original*%
%TF.FileFunction,Drillmap*%
%TF.FilePolarity,Positive*%
%FSLAX45Y45*%
G04 Gerber Fmt 4.5, Leading zero omitted, Abs format (unit mm)*
G04 Created by KiCad (PCBNEW 7.0.9) date 2023-11-12 02:23:47*
%MOMM*%
%LPD*%
G01*
G04 APERTURE LIST*
%ADD10C,0.100000*%
%ADD11C,0.200000*%
G04 APERTURE END LIST*
D10*
X13970000Y-8493760D02*
X15367000Y-8493760D01*
X15367000Y-9890760D01*
X13970000Y-9890760D01*
X13970000Y-8493760D01*
D11*
X14225777Y-10207244D02*
X14225777Y-10007244D01*
X14225777Y-10007244D02*
X14273396Y-10007244D01*
X14273396Y-10007244D02*
X14301967Y-10016768D01*
X14301967Y-10016768D02*
X14321015Y-10035815D01*
X14321015Y-10035815D02*
X14330539Y-10054863D01*
X14330539Y-10054863D02*
X14340062Y-10092958D01*
X14340062Y-10092958D02*
X14340062Y-10121530D01*
X14340062Y-10121530D02*
X14330539Y-10159625D01*
X14330539Y-10159625D02*
X14321015Y-10178672D01*
X14321015Y-10178672D02*
X14301967Y-10197720D01*
X14301967Y-10197720D02*
X14273396Y-10207244D01*
X14273396Y-10207244D02*
X14225777Y-10207244D01*
X14425777Y-10207244D02*
X14425777Y-10073910D01*
X14425777Y-10112006D02*
X14435301Y-10092958D01*
X14435301Y-10092958D02*
X14444824Y-10083434D01*
X14444824Y-10083434D02*
X14463872Y-10073910D01*
X14463872Y-10073910D02*
X14482920Y-10073910D01*
X14549586Y-10207244D02*
X14549586Y-10073910D01*
X14549586Y-10007244D02*
X14540062Y-10016768D01*
X14540062Y-10016768D02*
X14549586Y-10026291D01*
X14549586Y-10026291D02*
X14559110Y-10016768D01*
X14559110Y-10016768D02*
X14549586Y-10007244D01*
X14549586Y-10007244D02*
X14549586Y-10026291D01*
X14673396Y-10207244D02*
X14654348Y-10197720D01*
X14654348Y-10197720D02*
X14644824Y-10178672D01*
X14644824Y-10178672D02*
X14644824Y-10007244D01*
X14778158Y-10207244D02*
X14759110Y-10197720D01*
X14759110Y-10197720D02*
X14749586Y-10178672D01*
X14749586Y-10178672D02*
X14749586Y-10007244D01*
X15006729Y-10207244D02*
X15006729Y-10007244D01*
X15006729Y-10007244D02*
X15073396Y-10150101D01*
X15073396Y-10150101D02*
X15140062Y-10007244D01*
X15140062Y-10007244D02*
X15140062Y-10207244D01*
X15321015Y-10207244D02*
X15321015Y-10102482D01*
X15321015Y-10102482D02*
X15311491Y-10083434D01*
X15311491Y-10083434D02*
X15292443Y-10073910D01*
X15292443Y-10073910D02*
X15254348Y-10073910D01*
X15254348Y-10073910D02*
X15235301Y-10083434D01*
X15321015Y-10197720D02*
X15301967Y-10207244D01*
X15301967Y-10207244D02*
X15254348Y-10207244D01*
X15254348Y-10207244D02*
X15235301Y-10197720D01*
X15235301Y-10197720D02*
X15225777Y-10178672D01*
X15225777Y-10178672D02*
X15225777Y-10159625D01*
X15225777Y-10159625D02*
X15235301Y-10140577D01*
X15235301Y-10140577D02*
X15254348Y-10131053D01*
X15254348Y-10131053D02*
X15301967Y-10131053D01*
X15301967Y-10131053D02*
X15321015Y-10121530D01*
X15416253Y-10073910D02*
X15416253Y-10273910D01*
X15416253Y-10083434D02*
X15435301Y-10073910D01*
X15435301Y-10073910D02*
X15473396Y-10073910D01*
X15473396Y-10073910D02*
X15492443Y-10083434D01*
X15492443Y-10083434D02*
X15501967Y-10092958D01*
X15501967Y-10092958D02*
X15511491Y-10112006D01*
X15511491Y-10112006D02*
X15511491Y-10169149D01*
X15511491Y-10169149D02*
X15501967Y-10188196D01*
X15501967Y-10188196D02*
X15492443Y-10197720D01*
X15492443Y-10197720D02*
X15473396Y-10207244D01*
X15473396Y-10207244D02*
X15435301Y-10207244D01*
X15435301Y-10207244D02*
X15416253Y-10197720D01*
X15597205Y-10188196D02*
X15606729Y-10197720D01*
X15606729Y-10197720D02*
X15597205Y-10207244D01*
X15597205Y-10207244D02*
X15587682Y-10197720D01*
X15587682Y-10197720D02*
X15597205Y-10188196D01*
X15597205Y-10188196D02*
X15597205Y-10207244D01*
X15597205Y-10083434D02*
X15606729Y-10092958D01*
X15606729Y-10092958D02*
X15597205Y-10102482D01*
X15597205Y-10102482D02*
X15587682Y-10092958D01*
X15587682Y-10092958D02*
X15597205Y-10083434D01*
X15597205Y-10083434D02*
X15597205Y-10102482D01*
M02*
