%TF.GenerationSoftware,KiCad,Pcbnew,7.0.9*%
%TF.CreationDate,2023-11-12T02:22:26+01:00*%
%TF.ProjectId,try2,74727932-2e6b-4696-9361-645f70636258,rev?*%
%TF.SameCoordinates,Original*%
%TF.FileFunction,Legend,Top*%
%TF.FilePolarity,Positive*%
%FSLAX46Y46*%
G04 Gerber Fmt 4.6, Leading zero omitted, Abs format (unit mm)*
G04 Created by KiCad (PCBNEW 7.0.9) date 2023-11-12 02:22:26*
%MOMM*%
%LPD*%
G01*
G04 APERTURE LIST*
%ADD10C,0.150000*%
%ADD11C,0.120000*%
G04 APERTURE END LIST*
D10*
X144354779Y-89785819D02*
X144354779Y-88785819D01*
X144354779Y-88785819D02*
X144735731Y-88785819D01*
X144735731Y-88785819D02*
X144830969Y-88833438D01*
X144830969Y-88833438D02*
X144878588Y-88881057D01*
X144878588Y-88881057D02*
X144926207Y-88976295D01*
X144926207Y-88976295D02*
X144926207Y-89119152D01*
X144926207Y-89119152D02*
X144878588Y-89214390D01*
X144878588Y-89214390D02*
X144830969Y-89262009D01*
X144830969Y-89262009D02*
X144735731Y-89309628D01*
X144735731Y-89309628D02*
X144354779Y-89309628D01*
X145354779Y-89785819D02*
X145354779Y-88785819D01*
X145354779Y-88785819D02*
X145688112Y-89500104D01*
X145688112Y-89500104D02*
X146021445Y-88785819D01*
X146021445Y-88785819D02*
X146021445Y-89785819D01*
X146497636Y-89785819D02*
X146497636Y-88785819D01*
X147545254Y-89690580D02*
X147497635Y-89738200D01*
X147497635Y-89738200D02*
X147354778Y-89785819D01*
X147354778Y-89785819D02*
X147259540Y-89785819D01*
X147259540Y-89785819D02*
X147116683Y-89738200D01*
X147116683Y-89738200D02*
X147021445Y-89642961D01*
X147021445Y-89642961D02*
X146973826Y-89547723D01*
X146973826Y-89547723D02*
X146926207Y-89357247D01*
X146926207Y-89357247D02*
X146926207Y-89214390D01*
X146926207Y-89214390D02*
X146973826Y-89023914D01*
X146973826Y-89023914D02*
X147021445Y-88928676D01*
X147021445Y-88928676D02*
X147116683Y-88833438D01*
X147116683Y-88833438D02*
X147259540Y-88785819D01*
X147259540Y-88785819D02*
X147354778Y-88785819D01*
X147354778Y-88785819D02*
X147497635Y-88833438D01*
X147497635Y-88833438D02*
X147545254Y-88881057D01*
X147973826Y-89404866D02*
X148735731Y-89404866D01*
X149688111Y-89785819D02*
X149211921Y-89785819D01*
X149211921Y-89785819D02*
X149211921Y-88785819D01*
X144100779Y-94992819D02*
X144100779Y-93992819D01*
X144100779Y-93992819D02*
X144481731Y-93992819D01*
X144481731Y-93992819D02*
X144576969Y-94040438D01*
X144576969Y-94040438D02*
X144624588Y-94088057D01*
X144624588Y-94088057D02*
X144672207Y-94183295D01*
X144672207Y-94183295D02*
X144672207Y-94326152D01*
X144672207Y-94326152D02*
X144624588Y-94421390D01*
X144624588Y-94421390D02*
X144576969Y-94469009D01*
X144576969Y-94469009D02*
X144481731Y-94516628D01*
X144481731Y-94516628D02*
X144100779Y-94516628D01*
X145053160Y-94945200D02*
X145196017Y-94992819D01*
X145196017Y-94992819D02*
X145434112Y-94992819D01*
X145434112Y-94992819D02*
X145529350Y-94945200D01*
X145529350Y-94945200D02*
X145576969Y-94897580D01*
X145576969Y-94897580D02*
X145624588Y-94802342D01*
X145624588Y-94802342D02*
X145624588Y-94707104D01*
X145624588Y-94707104D02*
X145576969Y-94611866D01*
X145576969Y-94611866D02*
X145529350Y-94564247D01*
X145529350Y-94564247D02*
X145434112Y-94516628D01*
X145434112Y-94516628D02*
X145243636Y-94469009D01*
X145243636Y-94469009D02*
X145148398Y-94421390D01*
X145148398Y-94421390D02*
X145100779Y-94373771D01*
X145100779Y-94373771D02*
X145053160Y-94278533D01*
X145053160Y-94278533D02*
X145053160Y-94183295D01*
X145053160Y-94183295D02*
X145100779Y-94088057D01*
X145100779Y-94088057D02*
X145148398Y-94040438D01*
X145148398Y-94040438D02*
X145243636Y-93992819D01*
X145243636Y-93992819D02*
X145481731Y-93992819D01*
X145481731Y-93992819D02*
X145624588Y-94040438D01*
X146053160Y-94992819D02*
X146053160Y-93992819D01*
X146053160Y-93992819D02*
X146434112Y-93992819D01*
X146434112Y-93992819D02*
X146529350Y-94040438D01*
X146529350Y-94040438D02*
X146576969Y-94088057D01*
X146576969Y-94088057D02*
X146624588Y-94183295D01*
X146624588Y-94183295D02*
X146624588Y-94326152D01*
X146624588Y-94326152D02*
X146576969Y-94421390D01*
X146576969Y-94421390D02*
X146529350Y-94469009D01*
X146529350Y-94469009D02*
X146434112Y-94516628D01*
X146434112Y-94516628D02*
X146053160Y-94516628D01*
X147005541Y-94088057D02*
X147053160Y-94040438D01*
X147053160Y-94040438D02*
X147148398Y-93992819D01*
X147148398Y-93992819D02*
X147386493Y-93992819D01*
X147386493Y-93992819D02*
X147481731Y-94040438D01*
X147481731Y-94040438D02*
X147529350Y-94088057D01*
X147529350Y-94088057D02*
X147576969Y-94183295D01*
X147576969Y-94183295D02*
X147576969Y-94278533D01*
X147576969Y-94278533D02*
X147529350Y-94421390D01*
X147529350Y-94421390D02*
X146957922Y-94992819D01*
X146957922Y-94992819D02*
X147576969Y-94992819D01*
X147862684Y-93992819D02*
X148196017Y-94992819D01*
X148196017Y-94992819D02*
X148529350Y-93992819D01*
X149196017Y-94469009D02*
X148862684Y-94469009D01*
X148862684Y-94992819D02*
X148862684Y-93992819D01*
X148862684Y-93992819D02*
X149338874Y-93992819D01*
X149719827Y-94992819D02*
X149719827Y-93992819D01*
D11*
%TO.C,J3*%
X144145000Y-88198000D02*
X151825000Y-88198000D01*
X141545000Y-88198000D02*
X141545000Y-86868000D01*
X144145000Y-88198000D02*
X144145000Y-85538000D01*
X151825000Y-88198000D02*
X151825000Y-85538000D01*
X142875000Y-88198000D02*
X141545000Y-88198000D01*
X144145000Y-85538000D02*
X151825000Y-85538000D01*
%TO.C,Q2*%
X144447500Y-93508000D02*
X143797500Y-93508000D01*
X144447500Y-90388000D02*
X143797500Y-90388000D01*
X144447500Y-93508000D02*
X146122500Y-93508000D01*
X144447500Y-90388000D02*
X145097500Y-90388000D01*
%TO.C,Q1*%
X148922500Y-93508000D02*
X148272500Y-93508000D01*
X148922500Y-90388000D02*
X147247500Y-90388000D01*
X148922500Y-93508000D02*
X149572500Y-93508000D01*
X148922500Y-90388000D02*
X149572500Y-90388000D01*
%TO.C,J4*%
X144145000Y-98358000D02*
X151825000Y-98358000D01*
X141545000Y-98358000D02*
X141545000Y-97028000D01*
X144145000Y-98358000D02*
X144145000Y-95698000D01*
X151825000Y-98358000D02*
X151825000Y-95698000D01*
X142875000Y-98358000D02*
X141545000Y-98358000D01*
X144145000Y-95698000D02*
X151825000Y-95698000D01*
%TD*%
M02*
